<svg xmlns="http://www.w3.org/2000/svg" viewBox="0 0 512 512" role="img" aria-label="FeastCloud">
  <defs>
    <radialGradient id="navy" cx="50%" cy="42%" r="72%">
      <stop offset="0" stop-color="#24284f"/>
      <stop offset="1" stop-color="#171a38"/>
    </radialGradient>
    <linearGradient id="gold" x1="0" x2="1">
      <stop stop-color="#d9aa68"/>
      <stop offset=".5" stop-color="#ebcc99"/>
      <stop offset="1" stop-color="#d9aa68"/>
    </linearGradient>
  </defs>
  <rect width="512" height="512" rx="116" fill="url(#navy)"/>
  <g fill="none" stroke="#f7f7f4" stroke-linecap="round" stroke-linejoin="round">
    <path d="M183 268h-30c-34 0-61-27-61-61s27-61 61-61c11 0 21 3 30 8-1-5-1-10-1-15 0-45 36-81 81-81s81 36 81 81c0 5 0 10-1 15 9-5 19-8 30-8 34 0 61 27 61 61s-27 61-61 61h-34c-33 0-54 22-66 50" stroke-width="13"/>
    <path d="M224 112v105c0 24 13 39 31 59 18-20 31-35 31-59V112M240 112v94M255 112v94M270 112v94" stroke-width="10"/>
    <path d="M184 268c34 0 53 19 65 42 12 23 17 52 17 79" stroke-width="13"/>
    <path d="M266 389c-14 23-22 43-22 58 0 15 9 25 22 25s22-10 22-25c0-16-9-36-22-58Z" stroke-width="11"/>
  </g>
  <text x="256" y="353" fill="url(#gold)" font-family="Poppins, Arial, sans-serif" font-size="35" font-weight="600" letter-spacing="5" text-anchor="middle">FEAST CLOUD</text>
  <g fill="url(#gold)">
    <path d="M122 386h98l-72 7Z"/>
    <circle cx="224" cy="389" r="7"/>
    <path d="M390 386h-98l72 7Z"/>
    <circle cx="288" cy="389" r="7"/>
  </g>
</svg>
